<?xml version="1.0" encoding="UTF-8"?>
<svg id="Livello_2" data-name="Livello 2" xmlns="http://www.w3.org/2000/svg" xmlns:xlink="http://www.w3.org/1999/xlink" viewBox="0 0 476.94 476.94">
  <defs>
    <style>
      .cls-1, .cls-2, .cls-3 {
        stroke-width: 0px;
      }

      .cls-2 {
        fill: none;
      }

      .cls-3 {
        fill: #fff;
      }

      .cls-4 {
        clip-path: url(#clippath);
      }
    </style>
    <clipPath id="clippath">
      <rect class="cls-2" width="476.94" height="476.94"/>
    </clipPath>
  </defs>
  <g id="Livello_1-2" data-name="Livello 1">
    <g class="cls-4">
      <g>
        <path class="cls-1" d="m439.84,621.48c-2.37,7.45,1.83,16.45,9.6,16.07,15.64-.76,31.34-3.46,46.85-2.55,11.06.65,22.74,1.7,33.14,7.82,14.14,8.32,39.81,4.73,53.13-5.25,5.76-4.32,13.06-6.8,19.93-9.36,6.67-2.49,13.68-4.07,20.58-5.92,1.01-.27,2.29.04,3.34.38,10.02,3.21,11.87,2.35,17.21-6.02,6.6-10.36,16.64-14.97,28.59-13.99,3.66.3,8.5,3.33,10.22,6.51,3.23,5.98,4.53,12.99,6.76,19.53.65,1.91,1.75,3.67,2.65,5.5,1.4-1.64,3.65-3.08,4.07-4.94,2.28-10.17,10.18-19.33,20.45-19.83,5.27-.26,12.8,2.38,15.71,6.35,6.21,8.48,10.99,18.33,14.74,28.23,10.88,28.69,5.64,58.79,6.09,88.32.08,5.25-4.35,10.2-9.57,14.41-10.15,8.18-21.29,4.75-32.09,5.9-8.51.91-17.12,1.58-25.44,3.45-10.92,2.46-21.6,6-32.38,9.06-.65.19-1.35.23-2.04.29-11.74,1.08-23.78.88-35.17,3.5-26.56,6.11-53.34.89-79.88,3.13-10.87.92-21.59,3.67-32.37,5.64-6.42,1.18-12.79,2.71-19.24,3.66-16.08,2.37-32.31,3.95-48.28,6.91-10.78,2-21.16,6.07-31.84,8.71-6.98,1.72-14.25,2.27-21.28,3.84-6.31,1.41-12.46,3.5-18.69,5.27-1.5.42-3.03.73-4.55,1.08-7.85,1.84-15.71,3.68-23.57,5.5-1.54.36-3.1.86-4.66.87-17.16.08-34.45,1.42-51.43-.31-15.61-1.6-29.83-7.63-37.41-23.81-5.04-10.75-12.36-20.42-17.48-31.13-5.39-11.29-9.76-23.12-13.89-34.95-4.54-13.02-8.7-26.22-12.25-39.54-2.06-7.77-2.73-15.92-3.78-23.93-1.2-9.17-4.84-19.12-2.58-27.41,4.24-15.53,2.16-30.85,2.18-46.16.02-9.15-3.5-18.31-5.48-27.46-2.31-10.71-3.85-21.69-7.25-32.05-3.16-9.62-.67-19.79-3.33-28.75-4.38-14.73-.16-29.68-3.21-43.86-5.39-25.04-2.49-50.13-2.31-75.1.11-15.03,3.6-30.83,16.06-41.68,4.32-3.76,10.58-5.37,16.06-7.72,3.69-1.58,7.56-2.73,11.91-4.27-10.56-16.25-21.91-29.74-41.52-35.11-19.36-5.31-33.42-18.2-41.28-37.1-.5-1.2.04-2.82-.4-4.07-1.4-3.98-3.11-7.32-8.56-6.83-5.92.53-11.93-.12-17.87.27-13.1.87-26.41,4.06-39.19,2.55-11.25-1.33-24.45.46-33.44-10.1-4.14-4.86-6.21-9.94-6.88-16.49-2.44-23.79,9.42-31.03,26.61-39.42,14.28-6.97,29.92-11.18,45.06-16.34,4.41-1.51,9.27-1.72,13.65-3.29,1.92-.69,4.43-3.26,4.49-5.05.4-11.45.4-22.93.04-34.39-.09-3-2.55-5.89-2.83-8.94-.97-10.5,2.33-20.44,8.53-28.31,3.71-4.71,10.71-7.8,16.82-9.44,13.27-3.56,26.6-6.53,39.32-12.13,6.2-2.73,13.53-2.93,20.36-4.24,10.69-2.05,21.39-4.07,32.09-6.07,1.34-.25,2.72-.35,4.09-.36,11.93-.02,23.95-.92,35.75.29,8.98.92,18.56,3.06,24.78,10.67,3.12,3.81,4.93,8.83,6.74,13.53,2.16,5.59,3.79,11.39,5.44,17.16.67,2.36,1.05,4.88,1.1,7.34.14,7.5.05,15,.05,23.01,15.36-2.82,29.68-4.43,43.36-8.29,11.38-3.21,22.39-6.56,34.41-6.3,5.48.12,11.03-2.81,16.5-2.63,8.04.25,16.06,1.93,24.05,3.22,4.97.8,9.51,7.03,9.95,12.28.99,11.6-5.39,21.27-8.12,31.88-1.08,4.19-2.85,8.49-5.38,11.95-4.94,6.77-12.62,8.89-20.5,10.69-7.74,1.77-15.27,4.42-25.08,7.33,4.51,3.45,7.27,6.51,10.7,7.96,4.89,2.06,10.48,2.46,15.37,4.52,2.73,1.15,6.18,3.98,6.62,6.52,1.39,8.07,1.45,16.23-3.07,23.86-4.79,8.09-11.12,13.92-19.92,17.47-3.6,1.45-6.39,4.23-3.47,9.22,5.7,9.76-3.25,25.38-10.67,28.68-4.18,1.86-8.99,2.3-13.53,3.32-10.83,2.44-15.7,5.6-16.36,16.88-.85,14.52,6.32,22.1,17.5,28.71,10.61,6.27,20.45,13.83,30.9,20.39,8.68,5.44,18.23,9.59,26.51,15.54,7.53,5.4,13.88,12.44,20.71,18.8.45.42.69,1.21.76,1.86,1.17,9.81,2.91,19.6,3.3,29.44.56,14.2.54,28.45.05,42.65-.73,21.14-2.27,42.26-3.12,63.39l.8,14.36-.6,30.76-1.79,21.1.48,23.84-1.19,9.54Zm-45.29-171.47c0-15.6.1-31.19-.11-46.79-.03-2.14-1.34-5.97-2.44-6.12-11.99-1.58-18.31-10.97-26.46-18.02-6.41-5.54-13.28-11-20.84-14.64-14.03-6.74-28.71-12.12-43.12-18.06-8.72-3.6-17.17-9.1-26.22-10.39-17.35-2.48-34.85.18-52.13,3.08-.82.14-1.51.95-2.31,1.34-17.13,8.26-22.67,22.95-22.63,40.74.02,8.49.38,16.99-.09,25.45-.54,9.72-1.89,19.39-2.77,29.09-.27,2.96-1.12,6.36-.07,8.86,5.5,13.06,1.85,26.65,2.94,39.93.15,1.82.04,3.71.47,5.46,1.9,7.79,4.03,15.52,5.92,23.31,3.24,13.33,5.55,26.94,9.76,39.95,4.09,12.65,10.16,24.65,15.19,37,4.69,11.52,9.35,23.07,13.65,34.74,1.76,4.77,2.95,9.84,3.68,14.87,1.16,7.97,3.4,16.33,2.02,23.95-1.26,6.97,2.28,12.78,1.46,19.24-.09.7,1.87,2.38,2.9,2.4,6.61.08,13.51.97,19.78-.56,12.34-3,23.86-9.31,37.09-8.75,3.85.16,4.6-2.15,3.56-5.5-1.97-6.36-4.92-12.63-5.56-19.13-1.7-17.39-2.18-34.89-3.6-52.31-.58-7.11-.72-15-3.93-21-5.5-10.28-5.51-20.78-5.67-31.67-.1-6.88,2.65-12.18,7-17.13,6.88-7.82,13.73-15.68,20.3-23.75,2.96-3.63,6.57-7.53,7.53-11.84,2.94-13.15,5.99-26.5,6.69-39.89,1.09-21.04.59-42.19.13-63.28-.15-6.99,7.43-7.32,8.76-12.56,1.13.55,2.97.85,3.25,1.68,1.43,4.16,3.58,8.52,3.4,12.71-.65,14.92,1.62,29.78-2.4,44.86-2.68,10.07-.52,21.42-.61,32.2-.02,2.27-.36,4.54-.6,6.8-.83,7.61-1.88,15.2-2.32,22.83-.06,1.08,3.55,3.68,4.22,3.31,10.65-5.83,22.03-1.43,32.96-2.64,1.42-.16,3.05.66,4.44,1.32,5.44,2.6,6.71,1.92,6.75-4.33.09-15.6.03-31.19.04-46.79Zm-151.88,254.51c-3.38,2.02-7.27,3.01-8.32,5.31-1.27,2.77-1,6.98.15,9.97,3.62,9.36,7.79,18.51,12.09,27.59,4.42,9.33,8.72,18.8,14.03,27.63,7.9,13.12,22.2,15.19,35.34,16.26,15.49,1.26,31.38,2.04,46.77-2.83,5.74-1.82,11.84-2.49,17.76-3.77,8.9-1.92,17.77-3.93,26.67-5.85,6.35-1.37,12.74-2.57,19.07-4.01,7.79-1.77,15.5-3.86,23.31-5.53,6.83-1.46,13.76-2.41,20.61-3.78,9.34-1.88,18.61-4.09,27.96-5.9,7.48-1.45,15.05-2.48,22.57-3.74,11.66-1.95,23.28-4.19,34.99-5.83,10.67-1.49,21.46-2.15,32.14-3.56,6.17-.82,12.26-2.29,18.35-3.66,8.09-1.81,16.04-4.53,24.22-5.57,13.42-1.71,26.97-2.37,40.45-3.56.99-.09,1.92-.89,1.75-.8-.54-6.86-1.47-12.91-1.39-18.93.16-12.09.11-23.85-6.21-34.98-4.35-7.66-6.51-16.57-10.77-24.3-1.47-2.66-.98-8.77-6.97-7.66-10.49,1.95-20.75,4.37-28.92,12.09-9.23,8.72-20.09,13.98-33.08,13.19-11.21-.69-22.59,2.14-33.65-2.82-5.43-2.43-11.77-2.85-17.72-4.07-9.69-1.99-19.33-4.91-29.12-5.59-14.15-.98-28.66,1.24-42.54-.93-8.34-1.3-13.41,1.94-19,5.45-15.39,9.64-32.31,15.43-50.01,17.33-11.77,1.27-22.94,3.8-34.05,7.34-4.03,1.28-6.43,3.79-6.21,8.62.34,7.55.33,15.14.03,22.69-.47,12.12-5,22.06-16.28,28-13.51,7.1-27.52,6.58-38.9-2.56-10.69-8.58-19.05-20.09-28.18-30.54-2.71-3.11-4.55-6.98-6.93-10.73Zm87.16-94.37c1.06,15.38,2.14,30.75,3.17,46.13.12,1.83.01,3.67.04,5.5.08,4.52,2.03,5.49,6.21,3.77,5.09-2.09,10.32-3.99,15.64-5.37,6.04-1.56,12.28-2.33,18.37-3.67,8.68-1.91,17.22-4.6,25.98-5.93,10.83-1.65,23.24-13.12,24.02-24.13,1.34-18.95,2.22-37.93,3.29-56.91.12-2.06.03-4.13.26-6.17.95-8.73,1.95-17.45,2.99-26.16.58-4.88-2.42-7.34-6.34-8.48-5.57-1.61-11.39-2.36-16.99-3.86-13.97-3.74-27.97-7.4-41.78-11.68-7.11-2.21-22.14.32-24.21,6.32-3.85,11.18-12.33,18.26-20.08,26.1-3.5,3.54-4.7,7.44-2.24,11.74,9.41,16.42,10.07,34.71,11.68,52.82ZM141.45,156c.85-.06,3.1.13,5.14-.43,10.23-2.82,20.35-6.06,30.63-8.69,6.27-1.6,12.98-1.66,19.08-3.67,10.46-3.46,20.8-6.28,32-6.34,6.62-.04,13.39-1.71,19.82-3.6,9.43-2.77,18.64-6.12,28.7-5.74,5.27.2,10.55.16,15.82-.02,7.72-.26,9.75-3.85,6.45-10.89-.47-1-.75-2.18-.77-3.28-.23-12.89-5.1-24.55-9.65-36.27-.7-1.81-2.47-3.99-4.19-4.49-8.3-2.43-16.74-6.05-25.16-6.1-16.9-.12-33.82,1.6-50.7,3-6.23.52-12.51,1.76-18.49,3.58-12.35,3.76-24.4,8.51-36.79,12.11-7.88,2.29-13.1,6.95-16.22,14.16-1.16,2.67-2.01,5.76-1.91,8.62.13,3.49,1.77,6.91,2.11,10.42.48,5,.04,10.09.6,15.08.8,7.08,2.16,14.09,3.52,22.57Zm194.18,183.1c.28-.42.57-.84.85-1.26-2.33-3.77-5.17-7.33-6.87-11.37-2.33-5.54-4.93-11.37-5.31-17.21-.39-5.88,2.49-11.9,2.71-17.9.38-10.4,5.93-17.25,13.84-22.71,6.01-4.15,12.48-6.77,20.2-6.75,2.55,0,5.1-4,7.65-6.17-2.49-1.18-4.86-2.91-7.48-3.43-7.45-1.48-15.09-2.11-22.49-3.78-4.83-1.09-10.43-10.42-7.9-12.53,2.39-2,7.18-2.83,10.32-1.97,12.91,3.54,25.42,6.6,36.63-4.16,1.28-1.23,3.21-1.75,4.71-2.79,4.43-3.08,8.92-6.09,13.09-9.49,1.12-.92,1.99-3.43,1.52-4.65-.45-1.17-2.71-2.09-4.29-2.33-11.04-1.65-18.93-7.37-24.39-17.14-1.25-2.23-5.37-5.07-7.06-4.48-10.13,3.55-20.24,5.92-31.1,5.66-7.16-.17-9.24,3.58-10.16,10.78-.95,7.38-2.61,14.91-5.46,21.75-4.1,9.83-10.91,17.74-19.25,24.82-13.54,11.49-25.99,24.27-38.95,36.46-.96.9-2.23,1.55-3.46,2.07-8.35,3.56-16.73,7.05-24.98,10.51,3.2,6.94,6.01,13.29,9.12,19.5.53,1.06,2.38,2.16,3.54,2.08,10.35-.7,20.67-1.75,31.02-2.48,2.93-.21,6.11-.34,8.84.52,15.88,5.02,31.66,10.33,47.46,15.58,2.6.86,5.14,1.92,7.71,2.89Zm79.7-209.41l-.1-1.78c-4.88,0-9.84-.56-14.63.11-11.15,1.55-22.21,3.71-33.32,5.59-6.89,1.17-13.76,2.44-20.68,3.37-16.13,2.15-32.27,4.21-48.43,6.11-10.85,1.28-21.75,2.2-32.62,3.32-.67.07-1.29.44-1.96.57-9.4,1.92-18.76,4.11-28.22,5.65-9.33,1.52-18.81,2.16-28.16,3.62-5.28.82-10.44,2.47-15.64,3.79-7.14,1.82-14.22,3.86-21.4,5.47-9.59,2.15-19.36,3.56-28.83,6.12-4.73,1.28-8.74,5.07-13.45,6.58-11.24,3.61-22.54,7.29-34.09,9.56-15.85,3.12-29.99,9.7-43.22,18.49-4.43,2.94-9.26,7.67-5.3,12.94,2.83,3.76,9.2,7.52,13.43,6.97,7.73-1,14.97-5.4,22.55-8.01,7.6-2.62,15.3-5.05,23.08-7.08,6.46-1.69,13.33-1.98,19.61-4.12,10.53-3.57,20.52-8.79,31.12-12.07,12.53-3.88,25.4-6.74,38.23-9.49,12.18-2.61,24.58-4.17,36.74-6.85,7.61-1.68,14.94-4.61,22.41-6.92,6.14-1.9,12.24-3.96,18.47-5.5,6.74-1.67,13.63-2.67,20.4-4.23,7.19-1.66,14.24-3.94,21.46-5.41,7.69-1.57,15.81-1.58,23.22-3.92,13.77-4.36,27.12-10.05,40.74-14.9,4.62-1.65,9.52-2.61,14.35-3.57,8.06-1.6,16.16-2.95,24.25-4.41Zm1.16,321.46c0,16.96.12,33.93-.08,50.89-.06,4.98.92,7.54,6.76,7.51,5.88-.04,7.1-2.78,6.62-7.66-.98-9.93-2.59-19.84-2.75-29.78-.17-10.44,1.64-20.9,1.54-31.34-.14-13.81-1.4-27.62-1.96-41.43-.15-3.68-.55-6.23-5.19-6.06-4.46.17-5.06,2.51-5.02,6.29.15,17.19.06,34.39.08,51.58Zm-199.88,184.72c-3.56,7.45-.96,11.97.49,17.18,3.14,11.31,4.55,23.1,6.99,34.62.46,2.15,2.35,5.5,3.78,5.61,2.83.21,6.37-.8,8.51-2.61,1.26-1.06.98-4.81.35-7.06-1.63-5.76-3.52-11.49-5.9-16.97-4.27-9.84-8.97-19.49-14.22-30.77Zm188.43-257.06c-10.26-5.99-19.63-11.46-29.28-17.09-.65,12.09,16.14,22.43,29.28,17.09Z"/>
        <g>
          <path class="cls-3" d="m394.54,450.01c0,15.6.05,31.19-.03,46.79-.04,6.25-1.31,6.94-6.75,4.33-1.39-.67-3.02-1.48-4.44-1.32-10.93,1.21-22.31-3.2-32.96,2.64-.67.37-4.29-2.23-4.22-3.31.44-7.63,1.49-15.22,2.32-22.83.25-2.26.58-4.53.6-6.8.09-10.78-2.07-22.13.61-32.2,4.02-15.08,1.75-29.94,2.4-44.86.18-4.2-1.97-8.55-3.4-12.71-.29-.83-2.13-1.13-3.25-1.68-1.33,5.23-8.91,5.56-8.76,12.56.46,21.09.96,42.24-.13,63.28-.69,13.39-3.75,26.73-6.69,39.89-.96,4.3-4.58,8.2-7.53,11.84-6.57,8.08-13.42,15.94-20.3,23.75-4.35,4.94-7.1,10.25-7,17.13.16,10.9.17,21.39,5.67,31.67,3.21,6,3.35,13.88,3.93,21,1.42,17.42,1.89,34.92,3.6,52.31.64,6.5,3.59,12.78,5.56,19.13,1.04,3.35.29,5.66-3.56,5.5-13.23-.56-24.75,5.75-37.09,8.75-6.28,1.53-13.17.64-19.78.56-1.03-.01-2.99-1.69-2.9-2.4.82-6.47-2.72-12.27-1.46-19.24,1.38-7.62-.86-15.98-2.02-23.95-.73-5.04-1.92-10.1-3.68-14.87-4.3-11.67-8.95-23.22-13.65-34.74-5.03-12.35-11.1-24.35-15.19-37-4.21-13.01-6.52-26.62-9.76-39.95-1.89-7.79-4.02-15.52-5.92-23.31-.43-1.75-.32-3.64-.47-5.46-1.09-13.28,2.57-26.87-2.94-39.93-1.06-2.5-.2-5.9.07-8.86.88-9.7,2.23-19.37,2.77-29.09.47-8.46.11-16.97.09-25.45-.04-17.79,5.5-32.48,22.63-40.74.8-.39,1.49-1.2,2.31-1.34,17.28-2.9,34.78-5.56,52.13-3.08,9.05,1.29,17.5,6.8,26.22,10.39,14.41,5.95,29.09,11.32,43.12,18.06,7.56,3.63,14.44,9.1,20.84,14.64,8.15,7.05,14.47,16.44,26.46,18.02,1.1.15,2.42,3.98,2.44,6.12.21,15.59.11,31.19.11,46.79Z"/>
          <path class="cls-3" d="m141.45,156c-1.35-8.47-2.71-15.49-3.52-22.57-.57-4.98-.12-10.08-.6-15.08-.34-3.51-1.98-6.93-2.11-10.42-.11-2.86.75-5.94,1.91-8.62,3.12-7.21,8.33-11.86,16.22-14.16,12.39-3.61,24.44-8.35,36.79-12.11,5.98-1.82,12.26-3.06,18.49-3.58,16.88-1.4,33.8-3.11,50.7-3,8.41.06,16.85,3.67,25.16,6.1,1.72.5,3.49,2.68,4.19,4.49,4.55,11.72,9.42,23.38,9.65,36.27.02,1.1.3,2.28.77,3.28,3.3,7.04,1.26,10.63-6.45,10.89-5.27.18-10.55.22-15.82.02-10.06-.38-19.27,2.97-28.7,5.74-6.43,1.89-13.19,3.57-19.82,3.6-11.2.06-21.54,2.88-32,6.34-6.09,2.02-12.81,2.07-19.08,3.67-10.28,2.63-20.4,5.87-30.63,8.69-2.04.56-4.29.37-5.14.43Z"/>
          <path class="cls-3" d="m335.63,339.1c-2.57-.97-5.11-2.02-7.71-2.89-15.8-5.25-31.58-10.56-47.46-15.58-2.74-.86-5.91-.73-8.84-.52-10.35.74-20.67,1.79-31.02,2.48-1.16.08-3.02-1.02-3.54-2.08-3.11-6.2-5.91-12.55-9.12-19.5,8.25-3.46,16.63-6.95,24.98-10.51,1.23-.52,2.5-1.17,3.46-2.07,12.96-12.19,25.41-24.97,38.95-36.46,8.34-7.08,15.15-14.99,19.25-24.82,2.85-6.84,4.52-14.37,5.46-21.75.92-7.2,3-10.95,10.16-10.78,10.86.26,20.98-2.1,31.1-5.66,1.69-.59,5.82,2.24,7.06,4.48,5.46,9.77,13.35,15.49,24.39,17.14,1.58.24,3.84,1.15,4.29,2.33.47,1.23-.4,3.74-1.52,4.65-4.17,3.4-8.66,6.41-13.09,9.49-1.5,1.04-3.42,1.56-4.71,2.79-11.21,10.76-23.72,7.7-36.63,4.16-3.13-.86-7.92-.03-10.32,1.97-2.52,2.11,3.07,11.45,7.9,12.53,7.41,1.67,15.04,2.3,22.49,3.78,2.62.52,4.99,2.25,7.48,3.43-2.55,2.17-5.1,6.18-7.65,6.17-7.71-.02-14.18,2.6-20.2,6.75-7.91,5.46-13.46,12.31-13.84,22.71-.22,6-3.09,12.03-2.71,17.9.38,5.84,2.98,11.67,5.31,17.21,1.7,4.04,4.54,7.6,6.87,11.37-.28.42-.57.84-.85,1.26Z"/>
          <path class="cls-3" d="m415.33,129.7c-8.09,1.46-16.19,2.81-24.25,4.41-4.83.96-9.73,1.92-14.35,3.57-13.62,4.85-26.97,10.54-40.74,14.9-7.41,2.34-15.52,2.35-23.22,3.92-7.22,1.47-14.27,3.75-21.46,5.41-6.76,1.56-13.66,2.56-20.4,4.23-6.23,1.54-12.33,3.6-18.47,5.5-7.47,2.31-14.8,5.24-22.41,6.92-12.16,2.68-24.56,4.24-36.74,6.85-12.84,2.75-25.71,5.61-38.23,9.49-10.6,3.28-20.59,8.5-31.12,12.07-6.28,2.13-13.15,2.43-19.61,4.12-7.78,2.03-15.47,4.46-23.08,7.08-7.57,2.61-14.82,7-22.55,8.01-4.23.55-10.6-3.21-13.43-6.97-3.96-5.27.87-10,5.3-12.94,13.23-8.79,27.38-15.37,43.22-18.49,11.55-2.27,22.86-5.95,34.09-9.56,4.7-1.51,8.72-5.3,13.45-6.58,9.47-2.56,19.24-3.97,28.83-6.12,7.18-1.61,14.26-3.65,21.4-5.47,5.2-1.32,10.36-2.97,15.64-3.79,9.35-1.45,18.82-2.1,28.16-3.62,9.46-1.54,18.82-3.73,28.22-5.65.66-.14,1.29-.5,1.96-.57,10.87-1.11,21.77-2.04,32.62-3.32,16.16-1.9,32.3-3.97,48.43-6.11,6.92-.92,13.8-2.2,20.68-3.37,11.1-1.88,22.17-4.04,33.32-5.59,4.79-.67,9.75-.11,14.63-.11l.1,1.78Z"/>
          <path class="cls-3" d="m416.47,451.16c0-17.19.07-34.39-.07-51.58-.03-3.78.57-6.12,5.02-6.29,4.64-.17,5.04,2.37,5.19,6.06.56,13.82,1.82,27.62,1.96,41.43.11,10.44-1.71,20.9-1.54,31.34.16,9.94,1.77,19.86,2.75,29.78.48,4.87-.74,7.62-6.62,7.66-5.83.04-6.82-2.52-6.76-7.51.2-16.96.08-33.93.07-50.89Z"/>
          <path class="cls-3" d="m405.03,378.81c-13.14,5.34-29.93-5-29.28-17.09,9.65,5.64,19.02,11.1,29.28,17.09Z"/>
        </g>
      </g>
    </g>
  </g>
</svg>